<svg width="21" height="20" viewBox="0 0 21 20" fill="none" xmlns="http://www.w3.org/2000/svg">
<path d="M7.08919 2.70898C6.78716 2.70898 6.54232 2.95383 6.54232 3.25586V5.18048C6.54232 5.52566 6.2625 5.80548 5.91732 5.80548C5.57214 5.80548 5.29232 5.52566 5.29232 5.18048V3.25586C5.29232 2.26347 6.09681 1.45898 7.08919 1.45898H17.2454C18.2378 1.45898 19.0423 2.26347 19.0423 3.25586V13.4121C19.0423 14.4045 18.2378 15.209 17.2454 15.209H15.2991C14.9539 15.209 14.6741 14.9292 14.6741 14.584C14.6741 14.2388 14.9539 13.959 15.2991 13.959H17.2454C17.5475 13.959 17.7923 13.7141 17.7923 13.4121V3.25586C17.7923 2.95383 17.5475 2.70898 17.2454 2.70898H7.08919Z" fill="#AAE300" style="fill:#AAE300;fill:color(display-p3 0.6667 0.8902 0.0000);fill-opacity:1;"/>
<path d="M1.95898 6.58919C1.95898 5.59681 2.76347 4.79232 3.75586 4.79232H13.9121C14.9045 4.79232 15.709 5.59681 15.709 6.58919V16.7454C15.709 17.7378 14.9045 18.5423 13.9121 18.5423H3.75586C2.76347 18.5423 1.95898 17.7378 1.95898 16.7454V6.58919ZM3.75586 6.04232C3.45383 6.04232 3.20898 6.28716 3.20898 6.58919V16.7454C3.20898 17.0475 3.45383 17.2923 3.75586 17.2923H13.9121C14.2141 17.2923 14.459 17.0475 14.459 16.7454V6.58919C14.459 6.28716 14.2141 6.04232 13.9121 6.04232H3.75586Z" fill="#AAE300" style="fill:#AAE300;fill:color(display-p3 0.6667 0.8902 0.0000);fill-opacity:1;"/>
</svg>
