<svg width="307" height="348" viewBox="0 0 307 348" fill="none" xmlns="http://www.w3.org/2000/svg">
<g clip-path="url(#clip0_1340_9002)">
<rect width="307" height="348" rx="20" fill="#1D1E22" style="fill:#1D1E22;fill:color(display-p3 0.1137 0.1176 0.1333);fill-opacity:1;"/>
<path d="M47.7344 45.2402H44.8555V55.166H42.4707V35.7871H44.8555V43.2852H47.7344V45.2402ZM32.6953 48.3984C35.6387 48.3483 38.3958 48.0547 40.9668 47.5176L41.2246 49.5371C38.3958 50.0957 35.3092 50.375 31.9648 50.375H30.332V37.6777H32.6953V48.3984ZM70.2835 48.6992H62.5491V55.209H60.1859V48.6992H52.5374V46.7227H70.2835V48.6992ZM61.3675 36.4746C62.7353 36.4818 63.9492 36.6644 65.0091 37.0225C66.069 37.3805 66.8926 37.889 67.4798 38.5479C68.0742 39.1995 68.3714 39.9622 68.3714 40.8359C68.3714 41.7025 68.0742 42.4616 67.4798 43.1133C66.8926 43.7578 66.069 44.2555 65.0091 44.6064C63.9492 44.9574 62.7353 45.1328 61.3675 45.1328C59.9925 45.1328 58.7751 44.9574 57.7152 44.6064C56.6624 44.2555 55.846 43.7578 55.2659 43.1133C54.6859 42.4616 54.3994 41.7025 54.4066 40.8359C54.3994 39.9622 54.6859 39.1995 55.2659 38.5479C55.846 37.889 56.6624 37.3805 57.7152 37.0225C58.7751 36.6644 59.9925 36.4818 61.3675 36.4746ZM61.3675 38.4082C60.4508 38.4082 59.6523 38.5049 58.972 38.6982C58.2917 38.8916 57.7653 39.1709 57.3929 39.5361C57.0277 39.9014 56.8486 40.3346 56.8558 40.8359C56.8486 41.3301 57.0277 41.7598 57.3929 42.125C57.7653 42.4831 58.2917 42.7588 58.972 42.9521C59.6523 43.1455 60.4508 43.2422 61.3675 43.2422C62.2842 43.2422 63.0827 43.1455 63.763 42.9521C64.4433 42.7588 64.9697 42.4831 65.3421 42.125C65.7145 41.7598 65.9007 41.3301 65.9007 40.8359C65.9007 40.3346 65.7145 39.9014 65.3421 39.5361C64.9697 39.1709 64.4433 38.8916 63.763 38.6982C63.0827 38.5049 62.2842 38.4082 61.3675 38.4082ZM79.7427 35.9805C81.2179 35.9805 82.4748 36.1094 83.5132 36.3672C84.5587 36.625 85.3572 37.0046 85.9087 37.5059C86.4601 38 86.7394 38.6016 86.7466 39.3105C86.7394 40.3848 86.1271 41.2083 84.9096 41.7812C83.6922 42.3542 81.9699 42.6478 79.7427 42.6621C77.5083 42.6478 75.7824 42.3542 74.5649 41.7812C73.3475 41.2083 72.7388 40.3848 72.7388 39.3105C72.7388 38.6016 73.0145 38 73.5659 37.5059C74.1173 37.0046 74.9158 36.625 75.9614 36.3672C77.007 36.1094 78.2674 35.9805 79.7427 35.9805ZM79.7427 37.7637C78.2602 37.7637 77.1359 37.8962 76.3696 38.1611C75.6105 38.4189 75.2381 38.8021 75.2524 39.3105C75.2453 39.8405 75.6141 40.2344 76.3589 40.4922C77.1108 40.75 78.2388 40.8861 79.7427 40.9004C81.2609 40.8861 82.396 40.75 83.1479 40.4922C83.8999 40.2344 84.2759 39.8405 84.2759 39.3105C84.2759 38.8021 83.8927 38.4189 83.1264 38.1611C82.3673 37.8962 81.2394 37.7637 79.7427 37.7637ZM88.6157 45.541H80.9243V47.0234H86.4028V51.7715H75.3598V53.2109H86.9399V55.0371H73.018V50.0742H84.061V48.7852H72.9966V47.0234H78.5395V45.541H70.9126V43.6719H88.6157V45.541ZM98.7409 40.793H89.2233V38.8809H92.8327V36.3457H95.1959V38.8809H98.7409V40.793ZM94.0143 41.8242C94.8307 41.8242 95.5576 42.0176 96.195 42.4043C96.8395 42.7839 97.3408 43.3174 97.6989 44.0049C98.0641 44.6924 98.2467 45.4694 98.2467 46.3359C98.2467 47.2168 98.0641 48.0046 97.6989 48.6992C97.3408 49.3939 96.8395 49.9382 96.195 50.332C95.5576 50.7188 94.8307 50.9121 94.0143 50.9121C93.2051 50.9121 92.4782 50.7188 91.8336 50.332C91.1891 49.9382 90.6842 49.3939 90.319 48.6992C89.9538 48.0046 89.7747 47.2168 89.7819 46.3359C89.7747 45.4694 89.9538 44.6924 90.319 44.0049C90.6842 43.3174 91.1891 42.7839 91.8336 42.4043C92.4782 42.0176 93.2051 41.8242 94.0143 41.8242ZM94.0143 43.8008C93.5918 43.8008 93.2194 43.9082 92.8971 44.123C92.5748 44.3307 92.3242 44.6279 92.1452 45.0146C91.9661 45.3942 91.8802 45.8346 91.8873 46.3359C91.8802 46.8516 91.9661 47.3027 92.1452 47.6895C92.3242 48.0762 92.5748 48.3734 92.8971 48.5811C93.2194 48.7816 93.5918 48.8783 94.0143 48.8711C94.4297 48.8783 94.7985 48.7816 95.1207 48.5811C95.443 48.3734 95.6937 48.0762 95.8727 47.6895C96.0517 47.3027 96.1413 46.8516 96.1413 46.3359C96.1413 45.8346 96.0517 45.3942 95.8727 45.0146C95.6937 44.6279 95.443 44.3307 95.1207 44.123C94.7985 43.9082 94.4297 43.8008 94.0143 43.8008ZM105.96 55.209H103.682V45.7129H101.792V54.3281H99.5573V36.1953H101.792V43.7793H103.682V35.7871H105.96V55.209ZM114.796 40.4492C114.796 41.6667 114.982 42.8447 115.354 43.9834C115.734 45.1149 116.285 46.1175 117.009 46.9912C117.739 47.8649 118.606 48.5202 119.608 48.957L118.169 50.8691C117.095 50.3464 116.167 49.5944 115.387 48.6133C114.613 47.6322 114.015 46.4935 113.593 45.1973C113.156 46.5723 112.54 47.7826 111.745 48.8281C110.957 49.8737 110.019 50.6758 108.93 51.2344L107.427 49.3008C108.451 48.821 109.332 48.1191 110.069 47.1953C110.814 46.2715 111.38 45.2223 111.766 44.0479C112.16 42.8734 112.361 41.6738 112.368 40.4492V37.3555H114.796V40.4492ZM123.905 55.2305H121.542V43.9941H117.46V42.0605H121.542V35.7871H123.905V55.2305ZM146.497 40.5137H148.603V42.4688H146.497V47.5605H144.155V35.7871H146.497V40.5137ZM132.833 39.8262H134.423V37.1406H136.378V46.2285H130.878V37.1406H132.833V39.8262ZM134.423 44.3164V41.6953H132.833V44.3164H134.423ZM139.3 39.8262H140.847V37.1406H142.823V46.2285H137.345V37.1406H139.3V39.8262ZM140.847 44.3164V41.6953H139.3V44.3164H140.847ZM139.901 47.9043C141.284 47.9043 142.48 48.0475 143.489 48.334C144.499 48.6204 145.273 49.0358 145.81 49.5801C146.354 50.1243 146.626 50.776 146.626 51.5352C146.626 52.3014 146.354 52.9567 145.81 53.501C145.273 54.0524 144.499 54.4714 143.489 54.7578C142.48 55.0443 141.284 55.1875 139.901 55.1875C138.505 55.1875 137.302 55.0443 136.292 54.7578C135.282 54.4714 134.505 54.0524 133.961 53.501C133.424 52.9567 133.155 52.3014 133.155 51.5352C133.155 50.776 133.424 50.1243 133.961 49.5801C134.505 49.0358 135.282 48.6204 136.292 48.334C137.309 48.0475 138.512 47.9043 139.901 47.9043ZM139.901 49.7305C138.498 49.7305 137.427 49.8844 136.69 50.1924C135.959 50.5003 135.597 50.9479 135.605 51.5352C135.59 52.1152 135.952 52.5628 136.69 52.8779C137.434 53.1859 138.505 53.3398 139.901 53.3398C141.276 53.3398 142.336 53.1859 143.081 52.8779C143.833 52.5628 144.213 52.1152 144.22 51.5352C144.213 50.9479 143.837 50.5003 143.092 50.1924C142.347 49.8844 141.284 49.7305 139.901 49.7305ZM160.367 38.5371C160.359 39.3607 160.531 40.1484 160.882 40.9004C161.233 41.6523 161.752 42.3184 162.44 42.8984C163.127 43.4785 163.955 43.9154 164.921 44.209L163.675 46.0781C162.651 45.7487 161.76 45.251 161 44.585C160.248 43.9118 159.658 43.1169 159.228 42.2002C158.798 43.2529 158.175 44.1624 157.359 44.9287C156.55 45.6878 155.568 46.2643 154.415 46.6582L153.169 44.7676C154.208 44.431 155.085 43.9512 155.801 43.3281C156.525 42.7051 157.065 41.9854 157.423 41.1689C157.789 40.3525 157.975 39.4896 157.982 38.5801V36.7969H160.367V38.5371ZM168.767 40.2773H171.474V42.2539H168.767V46.8516H166.382V35.7871H168.767V40.2773ZM160.13 48.377C160.13 49.2435 160.327 50.0671 160.721 50.8477C161.115 51.6283 161.713 52.2764 162.515 52.792C163.324 52.2477 163.933 51.5745 164.341 50.7725C164.757 49.9632 164.971 49.1647 164.986 48.377V47.6465H167.306V48.377C167.306 49.0716 167.446 49.734 167.725 50.3643C168.004 50.9945 168.423 51.5566 168.982 52.0508C169.548 52.5378 170.242 52.9102 171.066 53.168L169.884 54.9512C168.968 54.6217 168.194 54.1598 167.564 53.5654C166.941 52.971 166.461 52.2692 166.124 51.46C165.795 52.2835 165.333 53.0104 164.739 53.6406C164.144 54.2708 163.417 54.7578 162.558 55.1016C161.677 54.7721 160.936 54.2995 160.334 53.6836C159.74 53.0677 159.282 52.3516 158.959 51.5352C158.609 52.3086 158.125 52.9889 157.509 53.5762C156.9 54.1634 156.17 54.6217 155.318 54.9512L154.093 53.168C154.902 52.8887 155.586 52.4984 156.145 51.9971C156.711 51.4958 157.133 50.93 157.413 50.2998C157.692 49.6696 157.831 49.0286 157.831 48.377V47.6465H160.13V48.377ZM177.109 37.2051C177.983 37.2051 178.77 37.4378 179.472 37.9033C180.174 38.3688 180.747 39.0348 181.191 39.9014C181.635 40.7607 181.911 41.7741 182.018 42.9414H185.724V35.7871H188.087V55.2305H185.724V44.875H182.05C181.964 46.1068 181.703 47.181 181.266 48.0977C180.829 49.0072 180.253 49.709 179.537 50.2031C178.821 50.6901 178.011 50.9336 177.109 50.9336C176.135 50.9336 175.272 50.6543 174.52 50.0957C173.768 49.5371 173.181 48.7386 172.758 47.7002C172.336 46.6618 172.125 45.4479 172.125 44.0586C172.125 42.6836 172.336 41.4805 172.758 40.4492C173.181 39.4108 173.768 38.6123 174.52 38.0537C175.279 37.488 176.142 37.2051 177.109 37.2051ZM177.109 39.3535C176.572 39.3535 176.099 39.5433 175.691 39.9229C175.283 40.2952 174.968 40.8359 174.746 41.5449C174.524 42.2467 174.416 43.0846 174.423 44.0586C174.416 45.0397 174.524 45.8848 174.746 46.5938C174.968 47.3027 175.283 47.847 175.691 48.2266C176.099 48.599 176.572 48.7852 177.109 48.7852C177.646 48.7852 178.115 48.599 178.516 48.2266C178.924 47.847 179.24 47.3027 179.462 46.5938C179.691 45.8848 179.809 45.0397 179.816 44.0586C179.809 43.0846 179.691 42.2432 179.462 41.5342C179.24 40.8252 178.924 40.2845 178.516 39.9121C178.115 39.5397 177.646 39.3535 177.109 39.3535ZM192.519 53.4688C192.219 53.4688 191.939 53.3936 191.681 53.2432C191.424 53.0928 191.219 52.8887 191.069 52.6309C190.919 52.373 190.844 52.0938 190.844 51.793C190.844 51.4993 190.919 51.2272 191.069 50.9766C191.219 50.7188 191.424 50.5146 191.681 50.3643C191.939 50.2139 192.219 50.1387 192.519 50.1387C192.806 50.1387 193.074 50.2139 193.325 50.3643C193.583 50.5146 193.787 50.7188 193.937 50.9766C194.095 51.2272 194.174 51.4993 194.174 51.793C194.174 52.0938 194.095 52.373 193.937 52.6309C193.787 52.8887 193.583 53.0928 193.325 53.2432C193.074 53.3936 192.806 53.4688 192.519 53.4688ZM197.853 53.4688C197.553 53.4688 197.273 53.3936 197.016 53.2432C196.758 53.0928 196.554 52.8887 196.403 52.6309C196.253 52.373 196.178 52.0938 196.178 51.793C196.178 51.4993 196.253 51.2272 196.403 50.9766C196.554 50.7188 196.758 50.5146 197.016 50.3643C197.273 50.2139 197.553 50.1387 197.853 50.1387C198.14 50.1387 198.408 50.2139 198.659 50.3643C198.917 50.5146 199.121 50.7188 199.271 50.9766C199.429 51.2272 199.508 51.4993 199.508 51.793C199.508 52.0938 199.429 52.373 199.271 52.6309C199.121 52.8887 198.917 53.0928 198.659 53.2432C198.408 53.3936 198.14 53.4688 197.853 53.4688ZM203.188 53.4688C202.887 53.4688 202.607 53.3936 202.35 53.2432C202.092 53.0928 201.888 52.8887 201.737 52.6309C201.587 52.373 201.512 52.0938 201.512 51.793C201.512 51.4993 201.587 51.2272 201.737 50.9766C201.888 50.7188 202.092 50.5146 202.35 50.3643C202.607 50.2139 202.887 50.1387 203.188 50.1387C203.474 50.1387 203.743 50.2139 203.993 50.3643C204.251 50.5146 204.455 50.7188 204.606 50.9766C204.763 51.2272 204.842 51.4993 204.842 51.793C204.842 52.0938 204.763 52.373 204.606 52.6309C204.455 52.8887 204.251 53.0928 203.993 53.2432C203.743 53.3936 203.474 53.4688 203.188 53.4688Z" fill="url(#paint0_radial_1340_9002)" style=""/>
<rect x="29" y="82.2969" width="320" height="108.104" rx="16" fill="#2A2B2F" style="fill:#2A2B2F;fill:color(display-p3 0.1647 0.1686 0.1843);fill-opacity:1;"/>
<path d="M80.0023 124.197C78.0716 124.197 76.8044 122.013 76.8044 119.319C76.8044 116.625 77.8953 115.359 79.8259 115.359C81.7566 115.359 83.498 116.625 83.498 119.319C83.498 122.013 81.9329 124.197 80.0023 124.197Z" fill="#767880" style="fill:#767880;fill:color(display-p3 0.4627 0.4706 0.5020);fill-opacity:1;"/>
<path d="M48.4958 124.197C50.4264 124.197 51.6937 122.013 51.6937 119.319C51.6937 116.625 50.6028 115.359 48.6721 115.359C46.7415 115.359 45 116.625 45 119.319C45 122.013 46.5651 124.197 48.4958 124.197Z" fill="#767880" style="fill:#767880;fill:color(display-p3 0.4627 0.4706 0.5020);fill-opacity:1;"/>
<path d="M80.2868 119.729C80.2868 128.587 73.1064 134.401 64.2489 134.401C55.3914 134.401 48.2109 128.587 48.2109 119.729C48.2109 110.872 55.3914 103.691 64.2489 103.691C73.1064 103.691 80.2868 110.872 80.2868 119.729Z" fill="#767880" style="fill:#767880;fill:color(display-p3 0.4627 0.4706 0.5020);fill-opacity:1;"/>
<g filter="url(#filter0_d_1340_9002)">
<circle cx="69.0301" cy="117.112" r="2.66687" fill="#1D1E22" style="fill:#1D1E22;fill:color(display-p3 0.1137 0.1176 0.1333);fill-opacity:1;"/>
</g>
<g filter="url(#filter1_d_1340_9002)">
<circle cx="59.4657" cy="117.112" r="2.66687" fill="#1D1E22" style="fill:#1D1E22;fill:color(display-p3 0.1137 0.1176 0.1333);fill-opacity:1;"/>
</g>
<path d="M51.8876 108.294C53.5232 104.148 60.6887 101.258 64.2857 102.651C72.0413 101.642 75.9821 106.354 77.2464 109.372C77.3832 109.699 77.1271 110.038 76.7732 110.03L69.5976 109.849L67.7426 106.499L67.2086 109.849L52.318 108.926C51.9945 108.906 51.7687 108.595 51.8876 108.294Z" fill="#767880" style="fill:#767880;fill:color(display-p3 0.4627 0.4706 0.5020);fill-opacity:1;"/>
<path d="M57.2969 151.666V160.057H55.5625V156.604H53.1562V155.182H55.5625V151.666H57.2969ZM45.4219 158.65C47.6953 157.869 48.8906 155.971 48.8906 154.104V153.994H45.9531V152.588H53.5781V153.994H50.6562V154.088C50.6562 155.807 51.7969 157.541 53.9844 158.275L53.1094 159.65C51.5391 159.119 50.4297 158.041 49.8047 156.713C49.1875 158.213 48.0078 159.432 46.3281 160.025L45.4219 158.65ZM47.7188 163.104C47.7031 161.408 49.5391 160.416 52.5156 160.416C55.5078 160.416 57.3359 161.408 57.3438 163.104C57.3359 164.799 55.5078 165.783 52.5156 165.791C49.5391 165.783 47.7031 164.799 47.7188 163.104ZM49.4375 163.104C49.4297 163.979 50.5547 164.455 52.5156 164.447C54.4922 164.455 55.6094 163.979 55.6094 163.104C55.6094 162.221 54.4922 161.744 52.5156 161.744C50.5547 161.744 49.4297 162.221 49.4375 163.104ZM69.9575 151.666V154.51H71.9263V155.947H69.9575V158.76H68.2231V151.666H69.9575ZM59.3013 158.166V152.385H65.9888V158.166H59.3013ZM60.7231 160.713V159.369H69.9575V163.072H62.4575V164.244H70.395V165.619H60.7388V161.807H68.2231V160.713H60.7231ZM61.0044 156.791H64.2856V153.76H61.0044V156.791ZM74.5556 160.932C74.5713 158.939 75.1338 158.33 76.1181 157.729C76.7822 157.299 77.2978 156.775 77.29 155.994C77.2978 155.119 76.6103 154.557 75.7588 154.557C74.9853 154.557 74.2353 155.057 74.1806 156.104H72.2275C72.2822 154.002 73.8447 152.932 75.7744 152.932C77.8838 152.932 79.3291 154.104 79.3369 155.963C79.3291 157.236 78.6963 158.064 77.6806 158.666C76.7744 159.221 76.3994 159.76 76.3838 160.932V161.072H74.5556V160.932ZM74.3056 163.307C74.2978 162.65 74.8525 162.111 75.5244 162.104C76.1728 162.111 76.7275 162.65 76.7275 163.307C76.7275 163.979 76.1728 164.525 75.5244 164.525C74.8525 164.525 74.2978 163.979 74.3056 163.307ZM83.1113 161.229C83.8925 161.229 84.8691 161.229 85.9081 161.197V159.002C84.4472 158.689 83.4784 157.549 83.4863 155.994C83.4784 154.182 84.8222 152.947 86.7363 152.947C88.6503 152.947 90.0019 154.182 90.0019 155.994C90.0019 157.549 89.0253 158.689 87.5644 159.002V161.127C88.5097 161.08 89.4394 161.002 90.2519 160.885L90.3613 162.15C88.0878 162.572 85.1581 162.658 83.33 162.65L83.1113 161.229ZM85.0488 155.994C85.0409 157.041 85.7519 157.658 86.7363 157.65C87.705 157.658 88.4081 157.041 88.4081 155.994C88.4081 154.994 87.705 154.338 86.7363 154.338C85.7519 154.338 85.0409 154.994 85.0488 155.994ZM90.8613 165.104V151.932H92.4863V157.369H93.8144V151.666H95.455V165.791H93.8144V158.822H92.4863V165.104H90.8613ZM112.854 159.619V161.057H107.229V165.791H105.511V161.057H99.9481V159.619H112.854ZM101.307 155.338C101.3 153.4 103.362 152.174 106.37 152.166C109.378 152.174 111.456 153.4 111.464 155.338C111.456 157.252 109.378 158.471 106.37 158.463C103.362 158.471 101.3 157.252 101.307 155.338ZM103.089 155.338C103.081 156.439 104.378 157.088 106.37 157.088C108.37 157.088 109.667 156.439 109.667 155.338C109.667 154.229 108.37 153.572 106.37 153.572C104.378 153.572 103.081 154.229 103.089 155.338ZM119.734 151.807C122.952 151.814 124.82 152.674 124.827 154.229C124.82 155.807 122.952 156.658 119.734 156.666C116.523 156.658 114.64 155.807 114.64 154.229C114.64 152.674 116.523 151.814 119.734 151.807ZM113.312 158.76V157.4H126.187V158.76H120.593V159.838H124.577V163.291H116.546V164.338H124.968V165.666H114.843V162.057H122.874V161.119H114.827V159.838H118.859V158.76H113.312ZM116.468 154.229C116.46 155.01 117.585 155.369 119.734 155.385C121.913 155.369 123.031 155.01 123.031 154.229C123.031 153.502 121.913 153.111 119.734 153.104C117.585 153.111 116.46 153.502 116.468 154.229ZM133.551 153.916V155.307H126.629V153.916H129.254V152.072H130.973V153.916H133.551ZM127.035 159.338C127.019 157.416 128.324 156.049 130.113 156.057C131.91 156.049 133.191 157.416 133.191 159.338C133.191 161.299 131.91 162.666 130.113 162.666C128.324 162.666 127.019 161.299 127.035 159.338ZM128.566 159.338C128.558 160.479 129.199 161.189 130.113 161.182C131.019 161.189 131.66 160.479 131.66 159.338C131.66 158.229 131.019 157.494 130.113 157.494C129.199 157.494 128.558 158.229 128.566 159.338ZM134.144 165.15V151.963H135.769V157.479H137.144V151.666H138.801V165.791H137.144V158.885H135.769V165.15H134.144ZM141.727 164.525C141.055 164.525 140.5 163.979 140.508 163.307C140.5 162.65 141.055 162.111 141.727 162.104C142.375 162.111 142.93 162.65 142.93 163.307C142.93 163.979 142.375 164.525 141.727 164.525ZM145.606 164.525C144.934 164.525 144.38 163.979 144.387 163.307C144.38 162.65 144.934 162.111 145.606 162.104C146.255 162.111 146.809 162.65 146.809 163.307C146.809 163.979 146.255 164.525 145.606 164.525ZM148.611 160.932C148.626 158.939 149.189 158.33 150.173 157.729C150.837 157.299 151.353 156.775 151.345 155.994C151.353 155.119 150.665 154.557 149.814 154.557C149.04 154.557 148.29 155.057 148.236 156.104H146.283C146.337 154.002 147.9 152.932 149.829 152.932C151.939 152.932 153.384 154.104 153.392 155.963C153.384 157.236 152.751 158.064 151.736 158.666C150.829 159.221 150.454 159.76 150.439 160.932V161.072H148.611V160.932ZM148.361 163.307C148.353 162.65 148.908 162.111 149.579 162.104C150.228 162.111 150.783 162.65 150.783 163.307C150.783 163.979 150.228 164.525 149.579 164.525C148.908 164.525 148.353 163.979 148.361 163.307Z" fill="white" fill-opacity="0.7" style="fill:white;fill-opacity:0.7;"/>
<rect x="29.25" y="210.65" width="319.5" height="107.803" rx="15.75" fill="#2A2B2F" style="fill:#2A2B2F;fill:color(display-p3 0.1647 0.1686 0.1843);fill-opacity:1;"/>
<rect x="29.25" y="210.65" width="319.5" height="107.803" rx="15.75" fill="#BFFF00" fill-opacity="0.15" style="fill:#BFFF00;fill:color(display-p3 0.7490 1.0000 0.0000);fill-opacity:0.15;"/>
<rect x="29.25" y="210.65" width="319.5" height="107.803" rx="15.75" stroke="#BFFF00" style="stroke:#BFFF00;stroke:color(display-p3 0.7490 1.0000 0.0000);stroke-opacity:1;" stroke-width="0.5"/>
<path d="M75.6855 247.078H75.7401C76.8715 247.078 77.4371 247.078 77.8337 247.366C77.9618 247.459 78.0744 247.572 78.1674 247.7C78.4555 248.097 78.4555 248.662 78.4555 249.794V252.801C78.4555 253.933 78.4555 254.498 78.1674 254.895C78.0744 255.023 77.9618 255.135 77.8337 255.229C77.4371 255.517 76.8715 255.517 75.7401 255.517H75.6855V247.078Z" fill="#BFFF00" style="fill:#BFFF00;fill:color(display-p3 0.7490 1.0000 0.0000);fill-opacity:1;"/>
<path d="M47.7695 247.078H47.7149C46.5836 247.078 46.0179 247.078 45.6214 247.366C45.4933 247.459 45.3807 247.572 45.2876 247.7C44.9995 248.097 44.9995 248.662 44.9995 249.794V252.801C44.9995 253.933 44.9995 254.498 45.2876 254.895C45.3807 255.023 45.4933 255.135 45.6214 255.229C46.0179 255.517 46.5836 255.517 47.7149 255.517H47.7695V247.078Z" fill="#BFFF00" style="fill:#BFFF00;fill:color(display-p3 0.7490 1.0000 0.0000);fill-opacity:1;"/>
<path d="M61.7281 226.4C63.7364 226.4 65.3644 228.028 65.3645 230.037C65.3645 231.502 64.4976 232.764 63.2486 233.34C62.7575 233.566 62.4422 234.15 62.6853 234.633L62.8877 235.035C63.4284 236.109 64.5281 236.786 65.7303 236.786C69.8785 236.786 71.9527 236.786 73.4067 237.843C73.8763 238.184 74.2893 238.597 74.6305 239.066C75.6869 240.52 75.6867 242.595 75.6867 246.743V254.747C75.6867 258.895 75.6868 260.969 74.6305 262.423C74.2893 262.893 73.8763 263.306 73.4067 263.647C71.9527 264.703 69.8785 264.704 65.7303 264.704H57.7264C53.5782 264.704 51.5041 264.703 50.0501 263.647C49.5805 263.306 49.1675 262.893 48.8263 262.423C47.7699 260.969 47.7695 258.895 47.7695 254.747V246.743C47.7695 242.595 47.7699 240.52 48.8263 239.066C49.1675 238.597 49.5805 238.184 50.0501 237.843C51.5041 236.786 53.5783 236.786 57.7264 236.786C58.948 236.786 60.0654 236.098 60.6149 235.007L60.7988 234.642C61.0423 234.159 60.7237 233.573 60.2305 233.35C58.9693 232.78 58.0918 231.511 58.0918 230.037C58.0919 228.029 59.7199 226.4 61.7281 226.4Z" fill="#BFFF00" style="fill:#BFFF00;fill:color(display-p3 0.7490 1.0000 0.0000);fill-opacity:1;"/>
<circle cx="66.2442" cy="247.078" r="2.51958" fill="#151519" style="fill:#151519;fill:color(display-p3 0.0824 0.0824 0.0980);fill-opacity:1;"/>
<circle cx="57.209" cy="247.078" r="2.51958" fill="#151519" style="fill:#151519;fill:color(display-p3 0.0824 0.0824 0.0980);fill-opacity:1;"/>
<path d="M49.704 283.319C50.44 283.319 51.096 283.538 51.672 283.975C52.2587 284.402 52.712 285.015 53.032 285.815C53.3627 286.604 53.528 287.538 53.528 288.615C53.528 289.703 53.3627 290.647 53.032 291.447C52.712 292.236 52.2587 292.85 51.672 293.287C51.096 293.714 50.44 293.927 49.704 293.927C48.968 293.927 48.312 293.714 47.736 293.287C47.16 292.85 46.7067 292.236 46.376 291.447C46.0453 290.647 45.88 289.703 45.88 288.615C45.88 287.538 46.0453 286.604 46.376 285.815C46.7067 285.015 47.16 284.402 47.736 283.975C48.312 283.538 48.968 283.319 49.704 283.319ZM49.704 285.255C49.352 285.255 49.0373 285.383 48.76 285.639C48.4933 285.895 48.2853 286.274 48.136 286.775C47.9867 287.266 47.912 287.879 47.912 288.615C47.912 289.34 47.9867 289.959 48.136 290.471C48.2853 290.972 48.4933 291.351 48.76 291.607C49.0373 291.863 49.352 291.991 49.704 291.991C50.0773 291.991 50.3973 291.863 50.664 291.607C50.9307 291.351 51.1387 290.972 51.288 290.471C51.4373 289.959 51.512 289.34 51.512 288.615C51.512 287.879 51.4373 287.266 51.288 286.775C51.1387 286.274 50.9307 285.895 50.664 285.639C50.3973 285.383 50.0773 285.255 49.704 285.255ZM55.96 282.279H58.088V297.143H55.96V282.279ZM52.904 287.639H56.856V289.335H52.904V287.639ZM62.6468 295.159H73.2868V296.871H62.6468V295.159ZM62.6468 292.119H64.7748V296.215H62.6468V292.119ZM70.7908 282.311H72.9188V293.031H70.7908V282.311ZM68.8388 286.215H72.6148V287.895H68.8388V286.215ZM60.5828 289.255H61.3188C61.7454 289.255 62.1294 289.25 62.4708 289.239C62.8228 289.228 63.1641 289.207 63.4948 289.175C63.8361 289.143 64.1881 289.09 64.5508 289.015L64.7108 290.727C64.3268 290.802 63.9588 290.855 63.6068 290.887C63.2654 290.919 62.9081 290.94 62.5348 290.951C62.1721 290.951 61.7668 290.951 61.3188 290.951H60.5828V289.255ZM60.5828 283.431H64.4548V285.111H62.6788V289.575H60.5828V283.431ZM65.1588 289.255H65.9588C66.5881 289.255 67.1108 289.25 67.5268 289.239C67.9534 289.228 68.3268 289.207 68.6468 289.175C68.9774 289.132 69.3028 289.074 69.6228 288.999L69.7828 290.695C69.4521 290.77 69.1161 290.828 68.7748 290.871C68.4334 290.903 68.0441 290.924 67.6068 290.935C67.1694 290.946 66.6201 290.951 65.9588 290.951H65.1588V289.255ZM65.1588 283.431H69.2868V285.111H67.2548V289.559H65.1588V283.431ZM89.2063 282.311H91.2863V291.239H89.2063V282.311ZM90.1503 285.751H92.6943V287.511H90.1503V285.751ZM79.2063 283.303H80.9343V285.191H81.8143V283.303H83.5423V290.311H79.2063V283.303ZM80.9343 286.823V288.631H81.8143V286.823H80.9343ZM84.1183 283.303H85.8303V285.191H86.6943V283.303H88.4223V290.311H84.1183V283.303ZM85.8303 286.823V288.631H86.6943V286.823H85.8303ZM86.1663 291.479C87.2436 291.479 88.1663 291.591 88.9343 291.815C89.7129 292.039 90.3103 292.359 90.7263 292.775C91.1529 293.191 91.3663 293.703 91.3663 294.311C91.3663 295.207 90.9023 295.9 89.9743 296.391C89.0463 296.882 87.7769 297.127 86.1663 297.127C84.5769 297.127 83.3129 296.882 82.3743 296.391C81.4463 295.9 80.9823 295.207 80.9823 294.311C80.9823 293.703 81.1903 293.191 81.6063 292.775C82.0329 292.359 82.6356 292.039 83.4143 291.815C84.1929 291.591 85.1103 291.479 86.1663 291.479ZM86.1663 293.095C85.5156 293.095 84.9609 293.138 84.5023 293.223C84.0543 293.308 83.7129 293.442 83.4783 293.623C83.2543 293.804 83.1423 294.034 83.1423 294.311C83.1423 294.567 83.2543 294.786 83.4783 294.967C83.7129 295.148 84.0543 295.282 84.5023 295.367C84.9609 295.452 85.5156 295.495 86.1663 295.495C86.8383 295.495 87.3983 295.452 87.8463 295.367C88.3049 295.282 88.6463 295.148 88.8703 294.967C89.0943 294.786 89.2063 294.567 89.2063 294.311C89.2063 294.034 89.0943 293.804 88.8703 293.623C88.6463 293.442 88.3049 293.308 87.8463 293.223C87.3983 293.138 86.8383 293.095 86.1663 293.095ZM100.485 282.503C102.17 282.503 103.482 282.722 104.421 283.159C105.37 283.596 105.845 284.226 105.845 285.047C105.845 285.858 105.37 286.482 104.421 286.919C103.482 287.356 102.17 287.575 100.485 287.575C98.789 287.575 97.4663 287.356 96.517 286.919C95.5783 286.482 95.109 285.858 95.109 285.047C95.109 284.226 95.5783 283.596 96.517 283.159C97.4663 282.722 98.789 282.503 100.485 282.503ZM100.469 284.071C99.765 284.071 99.1783 284.108 98.709 284.183C98.2397 284.247 97.8877 284.354 97.653 284.503C97.429 284.642 97.317 284.823 97.317 285.047C97.317 285.271 97.429 285.458 97.653 285.607C97.8877 285.746 98.2397 285.847 98.709 285.911C99.1783 285.975 99.765 286.007 100.469 286.007C101.184 286.007 101.776 285.975 102.245 285.911C102.714 285.847 103.061 285.746 103.285 285.607C103.509 285.458 103.621 285.271 103.621 285.047C103.621 284.823 103.509 284.642 103.285 284.503C103.061 284.354 102.714 284.247 102.245 284.183C101.776 284.108 101.184 284.071 100.469 284.071ZM93.765 288.263H107.173V289.943H93.765V288.263ZM95.301 290.775H105.541V294.567H97.429V295.879H95.317V293.095H103.445V292.343H95.301V290.775ZM95.317 295.415H105.941V297.031H95.317V295.415ZM115.797 283.447H117.509V285.591C117.509 286.508 117.429 287.404 117.269 288.279C117.109 289.143 116.858 289.948 116.516 290.695C116.186 291.442 115.765 292.108 115.253 292.695C114.741 293.271 114.138 293.73 113.445 294.071L112.165 292.359C112.794 292.071 113.333 291.687 113.781 291.207C114.239 290.727 114.618 290.183 114.917 289.575C115.215 288.967 115.434 288.327 115.573 287.655C115.722 286.972 115.797 286.284 115.797 285.591V283.447ZM116.213 283.447H117.925V285.591C117.925 286.263 117.989 286.924 118.117 287.575C118.255 288.226 118.463 288.844 118.741 289.431C119.029 290.007 119.386 290.524 119.812 290.983C120.239 291.442 120.751 291.82 121.349 292.119L120.053 293.815C119.391 293.474 118.815 293.026 118.325 292.471C117.845 291.906 117.45 291.26 117.141 290.535C116.831 289.799 116.597 289.015 116.437 288.183C116.287 287.34 116.213 286.476 116.213 285.591V283.447ZM121.925 282.311H124.069V297.127H121.925V282.311ZM123.605 288.007H126.213V289.767H123.605V288.007ZM135.075 283.783H138.019V285.479H135.075V283.783ZM135.075 286.535H138.019V288.231H135.075V286.535ZM137.443 282.311H139.587V290.823H137.443V282.311ZM130.563 282.839H132.307V284.183C132.307 285.196 132.163 286.151 131.875 287.047C131.587 287.943 131.145 288.727 130.547 289.399C129.95 290.071 129.182 290.583 128.243 290.935L127.075 289.255C127.907 288.956 128.579 288.546 129.091 288.023C129.603 287.5 129.977 286.908 130.211 286.247C130.446 285.575 130.563 284.887 130.563 284.183V282.839ZM130.979 282.839H132.707V284.183C132.707 284.684 132.771 285.18 132.899 285.671C133.027 286.162 133.225 286.626 133.491 287.063C133.758 287.5 134.099 287.895 134.515 288.247C134.931 288.599 135.433 288.882 136.019 289.095L134.835 290.759C133.961 290.418 133.235 289.916 132.659 289.255C132.094 288.594 131.673 287.826 131.395 286.951C131.118 286.076 130.979 285.154 130.979 284.183V282.839ZM130.691 291.383H132.291V291.719C132.291 292.476 132.174 293.202 131.939 293.895C131.715 294.578 131.358 295.18 130.867 295.703C130.387 296.226 129.758 296.631 128.979 296.919L127.939 295.383C128.59 295.148 129.113 294.839 129.507 294.455C129.913 294.071 130.211 293.644 130.403 293.175C130.595 292.695 130.691 292.21 130.691 291.719V291.383ZM131.219 291.383H132.755V291.719C132.755 292.21 132.841 292.7 133.011 293.191C133.182 293.671 133.454 294.114 133.827 294.519C134.201 294.924 134.691 295.255 135.299 295.511L134.419 297.079C133.641 296.78 133.017 296.348 132.547 295.783C132.078 295.228 131.737 294.599 131.523 293.895C131.321 293.18 131.219 292.455 131.219 291.719V291.383ZM136.083 291.383H137.619V291.719C137.619 292.412 137.513 293.111 137.299 293.815C137.097 294.519 136.761 295.159 136.291 295.735C135.833 296.322 135.209 296.77 134.419 297.079L133.555 295.511C134.163 295.234 134.654 294.882 135.027 294.455C135.401 294.028 135.667 293.58 135.827 293.111C135.998 292.631 136.083 292.167 136.083 291.719V291.383ZM136.595 291.383H138.195V291.719C138.195 292.242 138.286 292.743 138.467 293.223C138.649 293.703 138.942 294.13 139.347 294.503C139.753 294.876 140.286 295.17 140.947 295.383L139.891 296.919C139.113 296.652 138.478 296.263 137.987 295.751C137.507 295.239 137.155 294.636 136.931 293.943C136.707 293.25 136.595 292.508 136.595 291.719V291.383ZM152.962 287.895H155.57V289.655H152.962V287.895ZM151.362 282.279H153.506V297.095H151.362V282.279ZM142.354 283.703H144.466V292.919H142.354V283.703ZM142.354 291.719H143.618C144.674 291.719 145.773 291.676 146.914 291.591C148.055 291.506 149.223 291.346 150.418 291.111L150.642 292.839C149.405 293.095 148.199 293.271 147.026 293.367C145.853 293.452 144.717 293.495 143.618 293.495H142.354V291.719ZM159.569 289.831H161.697V293.975H159.569V289.831ZM164.945 289.831H167.073V293.975H164.945V289.831ZM156.625 293.671H170.049V295.399H156.625V293.671ZM163.313 283.031C164.379 283.031 165.329 283.196 166.161 283.527C167.003 283.858 167.659 284.322 168.129 284.919C168.609 285.506 168.849 286.204 168.849 287.015C168.849 287.815 168.609 288.514 168.129 289.111C167.659 289.698 167.003 290.156 166.161 290.487C165.329 290.818 164.379 290.983 163.313 290.983C162.257 290.983 161.307 290.818 160.465 290.487C159.633 290.156 158.977 289.698 158.497 289.111C158.017 288.514 157.777 287.815 157.777 287.015C157.777 286.204 158.017 285.506 158.497 284.919C158.977 284.322 159.633 283.858 160.465 283.527C161.307 283.196 162.257 283.031 163.313 283.031ZM163.313 284.679C162.63 284.679 162.027 284.775 161.505 284.967C160.993 285.148 160.593 285.41 160.305 285.751C160.017 286.092 159.873 286.514 159.873 287.015C159.873 287.495 160.017 287.911 160.305 288.263C160.593 288.604 160.993 288.871 161.505 289.063C162.027 289.244 162.63 289.335 163.313 289.335C164.006 289.335 164.609 289.244 165.121 289.063C165.643 288.871 166.043 288.604 166.321 288.263C166.609 287.911 166.753 287.495 166.753 287.015C166.753 286.514 166.609 286.092 166.321 285.751C166.043 285.41 165.643 285.148 165.121 284.967C164.609 284.775 164.006 284.679 163.313 284.679ZM173.71 292.283V292.135C173.714 291.449 173.778 290.904 173.903 290.499C174.032 290.093 174.214 289.768 174.449 289.521C174.684 289.271 174.97 289.042 175.307 288.834C175.538 288.69 175.744 288.533 175.926 288.362C176.112 288.188 176.258 287.995 176.364 287.783C176.47 287.567 176.523 287.326 176.523 287.061C176.523 286.762 176.453 286.502 176.312 286.283C176.172 286.063 175.983 285.893 175.744 285.771C175.509 285.65 175.246 285.589 174.955 285.589C174.686 285.589 174.43 285.648 174.188 285.766C173.949 285.879 173.75 286.054 173.591 286.288C173.436 286.519 173.348 286.813 173.33 287.169H171.307C171.326 286.449 171.5 285.847 171.83 285.362C172.163 284.877 172.602 284.514 173.148 284.271C173.697 284.029 174.303 283.908 174.966 283.908C175.689 283.908 176.326 284.035 176.875 284.288C177.428 284.542 177.858 284.904 178.165 285.374C178.475 285.839 178.631 286.393 178.631 287.033C178.631 287.464 178.561 287.851 178.42 288.192C178.284 288.533 178.089 288.836 177.835 289.101C177.581 289.366 177.28 289.603 176.932 289.811C176.625 290 176.373 290.197 176.176 290.402C175.983 290.607 175.839 290.847 175.744 291.124C175.653 291.396 175.606 291.733 175.602 292.135V292.283H173.71ZM174.699 295.828C174.358 295.828 174.064 295.707 173.818 295.464C173.572 295.222 173.449 294.927 173.449 294.578C173.449 294.237 173.572 293.946 173.818 293.703C174.064 293.461 174.358 293.339 174.699 293.339C175.036 293.339 175.328 293.461 175.574 293.703C175.824 293.946 175.949 294.237 175.949 294.578C175.949 294.809 175.89 295.019 175.773 295.209C175.659 295.398 175.508 295.55 175.318 295.663C175.133 295.773 174.926 295.828 174.699 295.828Z" fill="white" style="fill:white;fill-opacity:1;"/>
</g>
<defs>
<filter id="filter0_d_1340_9002" x="61.3633" y="109.945" width="15.334" height="15.334" filterUnits="userSpaceOnUse" color-interpolation-filters="sRGB">
<feFlood flood-opacity="0" result="BackgroundImageFix"/>
<feColorMatrix in="SourceAlpha" type="matrix" values="0 0 0 0 0 0 0 0 0 0 0 0 0 0 0 0 0 0 127 0" result="hardAlpha"/>
<feOffset dy="0.5"/>
<feGaussianBlur stdDeviation="2.5"/>
<feComposite in2="hardAlpha" operator="out"/>
<feColorMatrix type="matrix" values="0 0 0 0 0.947392 0 0 0 0 0.970189 0 0 0 0 1 0 0 0 0.2 0"/>
<feBlend mode="normal" in2="BackgroundImageFix" result="effect1_dropShadow_1340_9002"/>
<feBlend mode="normal" in="SourceGraphic" in2="effect1_dropShadow_1340_9002" result="shape"/>
</filter>
<filter id="filter1_d_1340_9002" x="51.7988" y="109.945" width="15.334" height="15.334" filterUnits="userSpaceOnUse" color-interpolation-filters="sRGB">
<feFlood flood-opacity="0" result="BackgroundImageFix"/>
<feColorMatrix in="SourceAlpha" type="matrix" values="0 0 0 0 0 0 0 0 0 0 0 0 0 0 0 0 0 0 127 0" result="hardAlpha"/>
<feOffset dy="0.5"/>
<feGaussianBlur stdDeviation="2.5"/>
<feComposite in2="hardAlpha" operator="out"/>
<feColorMatrix type="matrix" values="0 0 0 0 0.947392 0 0 0 0 0.970189 0 0 0 0 1 0 0 0 0.2 0"/>
<feBlend mode="normal" in2="BackgroundImageFix" result="effect1_dropShadow_1340_9002"/>
<feBlend mode="normal" in="SourceGraphic" in2="effect1_dropShadow_1340_9002" result="shape"/>
</filter>
<radialGradient id="paint0_radial_1340_9002" cx="0" cy="0" r="1" gradientUnits="userSpaceOnUse" gradientTransform="translate(118 35.2649) rotate(163.876) scale(143.962 26.6896)">
<stop stop-color="#E3E5E9" style="stop-color:#E3E5E9;stop-color:color(display-p3 0.8902 0.8980 0.9137);stop-opacity:1;"/>
<stop offset="1" stop-color="#A6A6A6" style="stop-color:#A6A6A6;stop-color:color(display-p3 0.6512 0.6512 0.6512);stop-opacity:1;"/>
</radialGradient>
<clipPath id="clip0_1340_9002">
<rect width="307" height="348" rx="20" fill="white" style="fill:white;fill-opacity:1;"/>
</clipPath>
</defs>
</svg>
