<svg width="68" height="68" viewBox="0 0 68 68" fill="none" xmlns="http://www.w3.org/2000/svg">
<path d="M31.9199 45.4453C28.7656 45.4453 26.9102 43.293 26.9102 40.25V39.7305C26.9102 35.3516 29.1738 32.457 33.5527 29.8965C38.3398 27.0391 39.7871 25.1836 39.7871 21.7695C39.7871 18.1328 36.9668 15.6094 32.8848 15.6094C29.248 15.6094 26.7988 17.3906 25.6113 20.6934C24.6836 23.0684 23.0137 24.1074 20.75 24.1074C17.8184 24.1074 16 22.2891 16 19.4688C16 17.873 16.3711 16.4629 17.1133 15.0527C19.4883 10.1543 25.4258 7 33.4043 7C43.9434 7 51.0312 12.7891 51.0312 21.4355C51.0312 27.0391 48.3223 30.8613 43.0898 33.9414C38.1543 36.7988 37.041 38.3945 36.5586 41.5117C36.002 43.998 34.5547 45.4453 31.9199 45.4453ZM31.9941 61.959C28.6543 61.959 25.9453 59.3984 25.9453 56.1328C25.9453 52.8672 28.6543 50.3066 31.9941 50.3066C35.3711 50.3066 38.0801 52.8672 38.0801 56.1328C38.0801 59.3984 35.3711 61.959 31.9941 61.959Z" fill="#43454A" style="fill:#43454A;fill:color(display-p3 0.2627 0.2706 0.2902);fill-opacity:1;"/>
</svg>
